<?xml version="1.0" encoding="UTF-8"?>
<svg xmlns="http://www.w3.org/2000/svg" xmlns:xlink="http://www.w3.org/1999/xlink" width="64px" height="36px" viewBox="0 0 64 36" version="1.1">
<g id="surface1">
<path style=" stroke:none;fill-rule:nonzero;fill:rgb(43.529412%,25.882353%,91.764706%);fill-opacity:1;" d="M 4.601562 10.398438 L 4.601562 10.734375 C 4.609375 10.890625 4.617188 11.050781 4.632812 11.207031 L 4.773438 12.199219 L 4.855469 12.800781 L 4.984375 13.601562 L 5.085938 14.199219 L 5.277344 15.199219 L 5.34375 15.601562 L 5.484375 16.601562 L 5.582031 17.199219 L 5.816406 18.601562 L 5.914062 19.199219 C 5.976562 19.597656 6.019531 20.003906 6.09375 20.398438 L 6.308594 21.398438 C 6.359375 21.664062 6.390625 21.933594 6.425781 22.199219 L 6.550781 23 C 6.625 23.457031 6.710938 23.910156 6.765625 24.367188 L 6.792969 24.664062 L 6.800781 25 L 11 25 L 11.019531 24.664062 L 11.035156 24.566406 L 11.058594 24.367188 L 11.144531 23.800781 L 11.285156 22.800781 L 11.4375 22 L 11.582031 21.199219 L 11.746094 20.199219 L 11.886719 19.199219 L 12.078125 18.199219 L 12.214844 17.398438 L 12.316406 16.800781 L 12.453125 15.800781 L 12.523438 15.398438 C 12.59375 15 12.6875 14.601562 12.742188 14.199219 L 12.859375 13.199219 C 12.890625 13 12.933594 12.800781 12.976562 12.601562 C 13.035156 12.335938 13.101562 12.070312 13.140625 11.800781 C 13.207031 11.335938 13.199219 10.867188 13.199219 10.398438 L 10.800781 10.398438 L 10.792969 10.734375 L 10.765625 11.03125 L 10.652344 11.800781 L 10.511719 12.800781 L 10.289062 14 L 10.230469 14.398438 L 10.167969 15 L 10.097656 15.398438 L 9.898438 16.199219 C 9.828125 16.53125 9.769531 16.863281 9.71875 17.199219 C 9.675781 17.464844 9.632812 17.730469 9.617188 18 L 9.59375 19 C 9.585938 19.199219 9.566406 19.398438 9.542969 19.601562 L 9.457031 20.199219 C 9.433594 20.398438 9.417969 20.597656 9.40625 20.800781 L 9.390625 21.398438 L 9.355469 21.796875 L 9.257812 22.171875 L 9.082031 22.476562 L 8.945312 22.601562 L 8.601562 22.800781 L 8.589844 22.464844 L 8.566406 22.167969 L 8.457031 21.398438 L 8.414062 21 L 8.367188 20.398438 L 8.234375 19.398438 C 8.195312 19 8.203125 18.597656 8.167969 18.199219 C 8.132812 17.863281 8.070312 17.535156 8.03125 17.199219 L 7.96875 16.601562 C 7.917969 16.199219 7.851562 15.796875 7.78125 15.398438 L 7.710938 15 L 7.625 14.601562 C 7.5625 14.335938 7.5 14.070312 7.460938 13.800781 C 7.402344 13.402344 7.402344 12.996094 7.335938 12.601562 C 7.269531 12.195312 7.132812 11.808594 7.066406 11.40625 C 7.027344 11.183594 7.011719 10.960938 7.003906 10.734375 L 7 10.398438 L 4.601562 10.398438 M 14.199219 10.398438 L 14.199219 25 L 16.601562 25 L 16.601562 20.199219 L 17.410156 20.199219 C 17.671875 20.195312 17.9375 20.191406 18.199219 20.164062 C 18.46875 20.140625 18.734375 20.09375 19 20.050781 L 19.601562 19.949219 C 19.867188 19.902344 20.136719 19.851562 20.398438 19.789062 L 20.601562 19.730469 L 20.800781 19.660156 L 20.996094 19.566406 L 21.378906 19.3125 L 21.714844 18.976562 L 21.855469 18.792969 L 22.070312 18.398438 C 22.15625 18.207031 22.214844 18.003906 22.265625 17.800781 C 22.328125 17.535156 22.371094 17.269531 22.414062 17 C 22.472656 16.667969 22.535156 16.335938 22.566406 16 C 22.59375 15.734375 22.597656 15.46875 22.597656 15.199219 L 22.59375 14.601562 L 22.566406 14.199219 C 22.550781 14 22.515625 13.800781 22.480469 13.601562 L 22.414062 13.199219 C 22.375 13 22.339844 12.796875 22.273438 12.601562 L 22.109375 12.199219 L 21.871094 11.808594 L 21.722656 11.621094 L 21.378906 11.277344 L 20.996094 11 L 20.800781 10.890625 L 20.398438 10.722656 L 20.199219 10.660156 L 19.800781 10.5625 C 19.535156 10.507812 19.269531 10.464844 19 10.433594 L 18.800781 10.417969 C 18.535156 10.394531 18.265625 10.402344 18 10.398438 L 14.199219 10.398438 M 23.601562 10.398438 L 23.601562 25 L 25.800781 25 L 25.800781 20 C 25.800781 19.734375 25.804688 19.464844 25.792969 19.199219 C 25.785156 19 25.769531 18.800781 25.742188 18.601562 L 25.65625 18 L 25.617188 17.601562 C 25.582031 17.066406 25.617188 16.53125 25.582031 16 C 25.550781 15.53125 25.449219 15.070312 25.417969 14.601562 C 25.398438 14.335938 25.402344 14.066406 25.398438 13.800781 L 25.398438 12.601562 L 26 12.601562 L 26.019531 12.933594 L 26.035156 13.03125 L 26.058594 13.230469 L 26.144531 13.800781 L 26.226562 14.398438 L 26.316406 15 L 26.375 15.398438 L 26.453125 16 L 26.550781 16.601562 L 26.71875 17.601562 L 26.949219 19 L 27.089844 19.800781 L 27.308594 20.800781 L 27.46875 21.601562 L 27.734375 22.601562 L 27.855469 23.199219 L 27.953125 23.597656 C 28.019531 23.859375 28.109375 24.113281 28.191406 24.367188 L 28.398438 25 L 32.199219 25 L 32.199219 10.398438 L 29.800781 10.398438 L 29.804688 10.734375 C 29.808594 10.894531 29.816406 11.050781 29.835938 11.207031 L 29.886719 11.601562 L 29.941406 12 C 29.96875 12.199219 29.984375 12.398438 29.992188 12.601562 C 30.007812 12.933594 30 13.265625 30 13.601562 L 30 16 C 30.003906 16.199219 30.003906 16.398438 30.019531 16.601562 C 30.03125 16.800781 30.058594 17 30.085938 17.199219 L 30.164062 17.800781 C 30.210938 18.265625 30.199219 18.734375 30.199219 19.199219 C 30.203125 19.398438 30.203125 19.601562 30.21875 19.800781 C 30.25 20.269531 30.351562 20.730469 30.382812 21.199219 C 30.398438 21.464844 30.398438 21.726562 30.398438 21.992188 L 30.398438 22.800781 L 29.800781 22.800781 L 29.792969 22.464844 L 29.78125 22.367188 L 29.738281 21.992188 L 29.707031 21.796875 L 29.492188 20.800781 L 29.425781 20.398438 L 29.34375 19.800781 L 29.214844 19 L 29.113281 18.398438 L 28.761719 16.601562 L 28.648438 16 L 28.511719 15.199219 C 28.457031 14.929688 28.390625 14.664062 28.324219 14.398438 L 28.113281 13.601562 L 27.949219 13 L 27.855469 12.601562 L 27.734375 12 L 27.476562 11.03125 L 27.421875 10.734375 L 27.398438 10.398438 L 23.601562 10.398438 M 33.398438 21.199219 L 38.199219 21.199219 L 38.199219 25 L 40.398438 25 L 40.398438 21.199219 L 42.199219 21.199219 L 42.199219 19 L 40.398438 19 L 40.398438 10.398438 L 39.199219 10.398438 L 38.398438 10.402344 C 38.203125 10.40625 38.003906 10.402344 37.808594 10.429688 C 37.621094 10.457031 37.441406 10.5 37.277344 10.605469 C 36.925781 10.832031 36.765625 11.234375 36.601562 11.601562 L 36.34375 12.199219 L 35.894531 13.199219 C 35.773438 13.464844 35.65625 13.730469 35.546875 14 L 35.226562 14.800781 L 34.859375 15.601562 L 34.429688 16.601562 C 34.230469 17.066406 34.027344 17.527344 33.839844 18 C 33.714844 18.328125 33.582031 18.65625 33.503906 19 C 33.460938 19.199219 33.433594 19.398438 33.417969 19.601562 C 33.402344 19.796875 33.402344 19.996094 33.402344 20.195312 L 33.398438 21.199219 M 42.398438 10.398438 L 42.398438 12.601562 L 45.199219 12.601562 L 45.199219 25 L 47.601562 25 L 47.601562 12.601562 L 50.398438 12.601562 L 50.398438 10.398438 L 42.398438 10.398438 M 50.800781 10.398438 C 50.800781 10.800781 50.792969 11.203125 50.835938 11.601562 C 50.855469 11.800781 50.886719 12 50.917969 12.199219 L 51.015625 12.800781 L 51.152344 13.601562 L 51.285156 14.398438 L 51.476562 15.398438 L 51.574219 16 L 51.65625 16.601562 L 51.816406 17.601562 L 51.921875 18.199219 L 52.148438 19.398438 L 52.25 20 L 52.34375 20.601562 L 52.484375 21.601562 L 52.585938 22.199219 L 52.816406 23.597656 L 52.941406 24.367188 L 52.964844 24.566406 L 52.980469 24.664062 L 53 25 L 57.199219 25 L 57.207031 24.664062 L 57.234375 24.367188 C 57.265625 24.109375 57.308594 23.855469 57.351562 23.597656 L 57.515625 22.601562 L 57.6875 21.398438 L 57.914062 20.199219 L 58.015625 19.601562 L 58.214844 18.398438 L 58.414062 17.199219 L 58.515625 16.601562 L 58.65625 15.601562 L 58.722656 15.199219 L 58.914062 14.199219 L 59.085938 13 L 59.25 12 C 59.292969 11.738281 59.335938 11.472656 59.367188 11.207031 C 59.382812 11.050781 59.390625 10.890625 59.398438 10.734375 L 59.398438 10.398438 L 57 10.398438 L 56.996094 10.734375 C 56.988281 10.960938 56.972656 11.183594 56.933594 11.40625 C 56.867188 11.808594 56.734375 12.195312 56.664062 12.601562 C 56.617188 12.863281 56.601562 13.132812 56.570312 13.398438 L 56.453125 14.199219 L 56.34375 15 C 56.308594 15.203125 56.265625 15.402344 56.222656 15.601562 L 56.09375 16.199219 C 56.03125 16.53125 55.992188 16.867188 55.945312 17.199219 C 55.90625 17.464844 55.859375 17.730469 55.832031 18 L 55.765625 19 L 55.632812 20 C 55.59375 20.398438 55.605469 20.800781 55.566406 21.199219 C 55.535156 21.523438 55.472656 21.84375 55.433594 22.167969 L 55.410156 22.464844 L 55.398438 22.800781 L 55.054688 22.601562 L 54.917969 22.476562 L 54.742188 22.171875 L 54.644531 21.796875 L 54.605469 21.398438 L 54.566406 20.800781 L 54.457031 20 C 54.433594 19.800781 54.417969 19.601562 54.40625 19.398438 L 54.398438 18.800781 C 54.394531 18.53125 54.390625 18.265625 54.367188 18 C 54.332031 17.664062 54.265625 17.332031 54.199219 17 L 54 16 L 53.921875 15.601562 C 53.886719 15.402344 53.855469 15.203125 53.832031 15 L 53.769531 14.398438 L 53.710938 14 L 53.488281 12.800781 L 53.429688 12.398438 L 53.367188 11.800781 L 53.257812 11.03125 L 53.234375 10.832031 L 53.21875 10.734375 L 53.199219 10.398438 L 50.800781 10.398438 M 20 13 L 20.035156 13.335938 L 20.054688 13.433594 L 20.085938 13.632812 C 20.113281 13.820312 20.148438 14.011719 20.164062 14.199219 C 20.191406 14.464844 20.199219 14.734375 20.199219 15 C 20.195312 15.199219 20.195312 15.398438 20.183594 15.601562 C 20.164062 15.867188 20.128906 16.136719 20.082031 16.398438 C 20.046875 16.597656 20.007812 16.792969 19.953125 16.988281 L 19.796875 17.339844 L 19.535156 17.613281 L 19.1875 17.792969 L 18.996094 17.855469 L 18.601562 17.9375 C 18.269531 17.992188 17.9375 17.996094 17.605469 18 L 16.601562 18 L 16.601562 12.601562 L 18 12.601562 C 18.332031 12.601562 18.667969 12.59375 18.996094 12.652344 C 19.226562 12.691406 19.449219 12.761719 19.664062 12.851562 L 20 13 M 38.800781 12.601562 L 38.761719 12.933594 L 38.746094 13.03125 L 38.714844 13.230469 L 38.683594 13.410156 L 38.632812 13.800781 L 38.566406 14.601562 L 38.433594 15.601562 L 38.367188 16.398438 L 38.257812 17.199219 L 38.21875 17.601562 C 38.203125 17.796875 38.203125 17.992188 38.199219 18.191406 L 38.199219 19 L 35.800781 19 L 35.839844 18.664062 L 35.90625 18.367188 C 35.960938 18.175781 36.023438 17.988281 36.09375 17.800781 L 36.417969 17 L 36.78125 16 L 37.113281 15.199219 L 37.355469 14.601562 L 37.710938 13.605469 L 37.792969 13.410156 L 37.996094 13.0625 L 38.246094 12.804688 L 38.410156 12.71875 Z M 38.800781 12.601562 "/>
</g>
</svg>
