<?xml version="1.0" standalone="no"?>
<!DOCTYPE svg PUBLIC "-//W3C//DTD SVG 20010904//EN"
 "http://www.w3.org/TR/2001/REC-SVG-20010904/DTD/svg10.dtd">
<svg version="1.0" xmlns="http://www.w3.org/2000/svg"
 width="48.000000pt" height="48.000000pt" viewBox="0 0 48.000000 48.000000"
 preserveAspectRatio="xMidYMid meet">

<g transform="translate(0.000000,48.000000) scale(0.100000,-0.100000)"
fill="#000000" stroke="none">
<path d="M220 387 c0 -17 -10 -28 -35 -40 -40 -19 -72 -65 -81 -117 -4 -19
-11 -41 -17 -47 -7 -9 -5 -13 5 -13 20 0 48 -32 48 -54 0 -11 4 -14 12 -10 24
15 152 10 172 -6 18 -14 19 -13 13 15 -3 16 1 41 9 56 7 15 15 42 17 62 2 20
9 43 16 51 12 14 10 16 -9 16 -12 0 -38 14 -57 30 -18 17 -40 30 -48 30 -8 0
-17 11 -21 25 -8 31 -24 33 -24 2z m85 -108 c-11 -17 -35 -9 -35 11 0 18 3 19
20 10 11 -6 18 -15 15 -21z m-120 -6 c-7 -31 -23 -53 -36 -53 -14 0 -10 34 7
58 21 31 38 28 29 -5z m59 11 c8 -20 -1 -34 -21 -34 -10 0 -13 6 -9 16 3 9 6
20 6 25 0 15 17 10 24 -7z m86 -56 c0 -13 -4 -29 -9 -36 -7 -11 -10 -10 -15 3
-11 29 -7 55 9 55 9 0 15 -9 15 -22z m-52 -31 c7 -18 12 -36 12 -40 0 -15 -43
-27 -75 -21 -28 5 -35 11 -35 29 0 26 42 65 69 65 10 0 22 -14 29 -33z"/>
</g>
</svg>
