<?xml version="1.0" standalone="no"?>
<!DOCTYPE svg PUBLIC "-//W3C//DTD SVG 20010904//EN"
 "http://www.w3.org/TR/2001/REC-SVG-20010904/DTD/svg10.dtd">
<svg version="1.0" xmlns="http://www.w3.org/2000/svg"
 width="48.000000pt" height="48.000000pt" viewBox="0 0 48.000000 48.000000"
 preserveAspectRatio="xMidYMid meet">

<g transform="translate(0.000000,48.000000) scale(0.100000,-0.100000)"
fill="#000000" stroke="none">
<path d="M0 240 l0 -240 240 0 240 0 0 240 0 240 -240 0 -240 0 0 -240z m248
171 c7 -19 19 -30 39 -34 16 -3 44 -21 63 -41 28 -29 40 -34 65 -29 l30 5 -30
-26 c-21 -18 -26 -28 -18 -34 8 -5 9 -13 3 -22 -6 -8 -10 -27 -10 -41 0 -15
-7 -33 -16 -40 -12 -9 -15 -24 -11 -51 6 -42 2 -46 -24 -22 -14 13 -23 14 -57
3 -31 -9 -51 -9 -87 0 -42 11 -49 10 -61 -6 -12 -17 -13 -17 -14 5 0 36 -29
72 -58 72 -24 0 -24 1 -9 18 10 10 17 27 17 38 1 25 36 103 58 127 9 11 34 28
55 38 28 15 37 26 37 44 0 34 16 32 28 -4z"/>
<path d="M152 298 c-22 -24 -46 -77 -38 -85 15 -15 46 13 60 54 9 26 16 48 16
50 0 10 -19 0 -38 -19z"/>
<path d="M221 297 c-16 -43 -14 -56 9 -50 29 8 33 19 16 50 l-14 28 -11 -28z"/>
<path d="M277 299 c7 -26 30 -36 46 -20 9 10 8 16 -7 27 -29 21 -45 18 -39 -7z"/>
<path d="M316 242 c-8 -13 15 -86 24 -76 4 5 11 26 14 47 6 32 5 37 -13 37
-11 0 -22 -4 -25 -8z"/>
<path d="M195 195 c-18 -17 -25 -34 -23 -53 3 -25 6 -27 59 -30 71 -4 83 8 65
63 -12 34 -19 40 -45 43 -22 2 -38 -4 -56 -23z"/>
<path d="M120 165 c0 -8 5 -15 10 -15 6 0 10 7 10 15 0 8 -4 15 -10 15 -5 0
-10 -7 -10 -15z"/>
</g>
</svg>
